<svg xmlns="http://www.w3.org/2000/svg" width="24" height="24" fill="white" viewBox="0 0 24 24">
  <path d="M12 .297c-6.63 0-12 5.373-12 12 0 5.303 3.438 9.8 8.205 11.385.6.113.82-.258.82-.577 0-.285-.01-1.04-.015-2.04-3.338.726-4.042-1.61-4.042-1.61-.546-1.387-1.333-1.757-1.333-1.757-1.09-.744.083-.729.083-.729 1.205.084 1.838 1.236 1.838 1.236 1.07 1.834 2.807 1.304 3.492.997.108-.776.418-1.305.76-1.605-2.665-.304-5.466-1.334-5.466-5.932 0-1.31.467-2.38 1.236-3.22-.124-.303-.535-1.524.117-3.176 0 0 1.01-.323 3.3 1.23.96-.267 1.985-.399 3.005-.404 1.02.005 2.045.137 3.005.404 2.29-1.553 3.3-1.23 3.3-1.23.653 1.653.242 2.874.118 3.176.77.84 1.236 1.91 1.236 3.22 0 4.61-2.805 5.625-5.475 5.92.43.37.815 1.102.815 2.22 0 1.606-.015 2.896-.015 3.286 0 .32.22.694.825.576C20.565 22.092 24 17.592 24 12.297c0-6.627-5.373-12-12-12"/>
</svg>
