<svg xmlns="http://www.w3.org/2000/svg" width="24" height="24" fill="white" viewBox="0 0 24 24">
  <path d="M22.23 0H1.77C.79 0 0 .77 0 1.72v20.55C0 23.23.79 24 1.77 24h20.46c.98 0 1.77-.77 1.77-1.72V1.72C24 .77 23.21 0 22.23 0zM7.12 20.45H3.56V9.03h3.56v11.42zM5.34 7.53c-1.14 0-2.06-.92-2.06-2.06s.92-2.06 2.06-2.06 2.06.92 2.06 2.06-.92 2.06-2.06 2.06zm15.11 12.92h-3.56v-5.54c0-1.32-.03-3.01-1.83-3.01-1.83 0-2.11 1.43-2.11 2.91v5.64h-3.56V9.03h3.42v1.56h.05c.48-.91 1.66-1.83 3.41-1.83 3.64 0 4.31 2.39 4.31 5.49v6.2z"/>
</svg>
